# xmcd
#
# Track frame offsets: 
#        150
#        19627
#        41455
#        60172
#        75727
#        92247
#        107287
#        120050
#        132545
#        148465
#
# Disc length: 2211 seconds
#
# Revision: 0
# Processed by: cddbd v1.5.2PL0 Copyright (c) Steve Scherf et al.
# Submitted via: ExactAudioCopy v0.95b4
#
DISCID=7708a10a
DTITLE=Various Artist - Number One Hits Of The 80's, Vol Two
DYEAR=1988
DGENRE=Country
TTITLE0=Steve Warner - Life's Highway
TTITLE1=George Strait - Nobody In His Right Mind Would've Left Her
TTITLE2=Lee Greenwood - Dixie Road
TTITLE3=Reba McEntire - Somebody Should Leave
TTITLE4=Oak Ridge Boys - Touch A Hand, Make A Friend
TTITLE5=Steve Wariner - Small Town Girl
TTITLE6=George Strait - It Ain't Cool To Be Crazy About You
TTITLE7=Lee Greenwood - I Don't Mind The Thorns (When You're The Rose)
TTITLE8=Reba McEntire - Whoever's In New England
TTITLE9=Don Williams - That's The Thing About Love
EXTD=
EXTT0=
EXTT1=
EXTT2=
EXTT3=
EXTT4=
EXTT5=
EXTT6=
EXTT7=
EXTT8=
EXTT9=
PLAYORDER=
